<svg width="160" height="160" viewBox="0 0 160 160" fill="none" xmlns="http://www.w3.org/2000/svg">
    <g clip-path="url(#clip0_207_2)">
        <mask id="mask0_207_2" style="mask-type:alpha" maskUnits="userSpaceOnUse" x="1" y="0" width="67" height="49">
            <path d="M29.8819 5.28179C17.1225 7.73604 7.14159 17.7701 4.70349 30.6032C3.56825 36.5741 2.63873 42.5731 1.91492 48.5925C14.5244 47.216 30.047 43.5333 43.2508 34.4569C54.2248 26.9129 60.0483 14.0517 67.1568 0.845764C54.6692 1.43315 42.2121 2.91183 29.8819 5.28179Z" fill="white"/>
        </mask>
        <g mask="url(#mask0_207_2)">
            <path fill-rule="evenodd" clip-rule="evenodd" d="M29.8819 5.28179C17.1225 7.73604 7.14159 17.7701 4.70349 30.6032C3.56825 36.5741 2.63873 42.5731 1.91492 48.5925C14.5244 47.216 30.047 43.5333 43.2508 34.4569C54.2248 26.9129 60.0483 14.0517 67.1568 0.845764C54.6692 1.43315 42.2121 2.91183 29.8819 5.28179Z" fill="url(#paint0_linear_207_2)"/>
        </g>
        <mask id="mask1_207_2" style="mask-type:alpha" maskUnits="userSpaceOnUse" x="0" y="0" width="145" height="115">
            <path d="M79.0095 0.554626C74.3416 0.562288 69.6736 0.697642 65.0083 0.95558C58.1486 13.7095 52.5079 26.1186 41.9073 33.4048C29.1962 42.1415 14.273 45.7194 2.10286 47.0704C-0.716191 69.4293 -0.698413 92.0564 2.15873 114.408C13.7092 98.3567 28.7543 91.2417 39.266 89.8115C75.8984 84.8367 87.4235 60.1027 103.944 33.7368C113.041 19.2156 128.978 13.9163 144.028 12.55C139.891 8.92358 134.801 6.36463 129.168 5.2818C112.94 2.16355 96.4902 0.585273 80.0381 0.554626H79.0095Z" fill="white"/>
        </mask>
        <g mask="url(#mask1_207_2)">
            <path fill-rule="evenodd" clip-rule="evenodd" d="M79.0095 0.554626C74.3416 0.562288 69.6736 0.697642 65.0083 0.95558C58.1486 13.7095 52.5079 26.1186 41.9073 33.4048C29.1962 42.1415 14.273 45.7194 2.10286 47.0704C-0.716191 69.4293 -0.698413 92.0564 2.15873 114.408C13.7092 98.3567 28.7543 91.2417 39.266 89.8115C75.8984 84.8367 87.4235 60.1027 103.944 33.7368C113.041 19.2156 128.978 13.9163 144.028 12.55C139.891 8.92358 134.801 6.36463 129.168 5.2818C112.94 2.16355 96.4902 0.585273 80.0381 0.554626H79.0095Z" fill="url(#paint1_linear_207_2)"/>
        </g>
        <mask id="mask2_207_2" style="mask-type:alpha" maskUnits="userSpaceOnUse" x="0" y="11" width="160" height="145">
            <path d="M103.944 32.4087C87.4235 58.7772 79.5225 77.9821 42.8927 82.9621C31.9822 84.4408 12.7365 85.0078 0.868571 102.034C1.63556 111.55 2.91556 121.032 4.70349 130.443C7.10857 143.113 16.8711 153.052 29.3994 155.665C31.6216 136.738 38.8038 119.758 58.7352 107.732C88.4343 89.8115 100.312 100.762 131.002 91.8035C142.857 88.3431 152.056 82.3288 159.012 76.0157C158.756 60.805 157.199 45.6096 154.344 30.6032C152.863 22.7935 148.589 16.0233 142.593 11.3651C127.972 12.9357 112.752 18.3498 103.944 32.4087Z" fill="white"/>
        </mask>
        <g mask="url(#mask2_207_2)">
            <path fill-rule="evenodd" clip-rule="evenodd" d="M103.944 32.4087C87.4235 58.7772 79.5225 77.9821 42.8927 82.9621C31.9822 84.4408 12.7365 85.0078 0.868571 102.034C1.63556 111.55 2.91556 121.032 4.70349 130.443C7.10857 143.113 16.8711 153.052 29.3994 155.665C31.6216 136.738 38.8038 119.758 58.7352 107.732C88.4343 89.8115 100.312 100.762 131.002 91.8035C142.857 88.3431 152.056 82.3288 159.012 76.0157C158.756 60.805 157.199 45.6096 154.344 30.6032C152.863 22.7935 148.589 16.0233 142.593 11.3651C127.972 12.9357 112.752 18.3498 103.944 32.4087Z" fill="url(#paint2_linear_207_2)"/>
        </g>
        <mask id="mask3_207_2" style="mask-type:alpha" maskUnits="userSpaceOnUse" x="90" y="119" width="67" height="42">
            <path d="M126.024 123.042C102.499 131.687 93.6178 150.435 90.4889 160.262C103.446 159.721 116.373 158.221 129.168 155.762C141.93 153.308 151.909 143.274 154.344 130.443C155.043 126.768 155.665 123.083 156.208 119.39C155.126 119.367 154.024 119.354 152.907 119.354C143.86 119.354 133.801 120.179 126.024 123.042Z" fill="white"/>
        </mask>
        <g mask="url(#mask3_207_2)">
            <path fill-rule="evenodd" clip-rule="evenodd" d="M126.024 123.042C102.499 131.687 93.6178 150.435 90.4889 160.262C103.446 159.721 116.373 158.221 129.168 155.762C141.93 153.308 151.909 143.274 154.344 130.443C155.043 126.768 155.665 123.083 156.208 119.39C155.126 119.367 154.024 119.354 152.907 119.354C143.86 119.354 133.801 120.179 126.024 123.042Z" fill="url(#paint3_linear_207_2)"/>
        </g>
        <mask id="mask4_207_2" style="mask-type:alpha" maskUnits="userSpaceOnUse" x="27" y="74" width="133" height="87">
            <path d="M130.596 90.8152C99.4641 99.9018 87.4159 88.7951 57.2876 106.971C37.1962 119.091 29.8743 136.177 27.5708 155.228C28.3302 155.433 29.0997 155.611 29.8819 155.762C46.1079 158.88 62.5524 160.459 79.0019 160.489H80.0483C84.6273 160.482 89.2064 160.351 93.7803 160.104C96.8127 150.698 105.305 133 127.581 124.809C135.784 121.793 146.644 121.15 155.916 121.323C158.004 107.803 159.05 94.1633 159.05 80.5232C159.05 78.6206 159.03 76.718 158.989 74.8154C151.937 81.2179 142.611 87.3037 130.596 90.8152Z" fill="white"/>
        </mask>
        <g mask="url(#mask4_207_2)">
            <path fill-rule="evenodd" clip-rule="evenodd" d="M130.596 90.8152C99.4641 99.9018 87.4159 88.7951 57.2876 106.971C37.1962 119.091 29.8743 136.177 27.5708 155.228C28.3302 155.433 29.0997 155.611 29.8819 155.762C46.1079 158.88 62.5524 160.459 79.0019 160.489H80.0483C84.6273 160.482 89.2064 160.351 93.7803 160.104C96.8127 150.698 105.305 133 127.581 124.809C135.784 121.793 146.644 121.15 155.916 121.323C158.004 107.803 159.05 94.1633 159.05 80.5232C159.05 78.6206 159.03 76.718 158.989 74.8154C151.937 81.2179 142.611 87.3037 130.596 90.8152Z" fill="url(#paint4_linear_207_2)"/>
        </g>
        <path d="M34.61 54.25L26.56 39.235V56H21.03V31.5H28.625L34.68 43.05L40.735 31.5H48.33V56H42.66V39.305L34.61 54.25ZM57.7002 56.315C55.7402 56.315 54.1302 55.7783 52.8702 54.705C51.6102 53.6317 50.9802 52.255 50.9802 50.575C50.9802 48.825 51.6452 47.46 52.9752 46.48C54.3285 45.5 56.2068 45.01 58.6102 45.01C59.3335 45.01 60.0452 45.0567 60.7452 45.15C61.4452 45.2433 62.1335 45.3717 62.8102 45.535V44.625C62.8102 43.6917 62.5068 43.0033 61.9002 42.56C61.3168 42.0933 60.4418 41.86 59.2752 41.86C58.5518 41.86 57.7352 41.9767 56.8252 42.21C55.9152 42.4433 54.8652 42.8167 53.6752 43.33L51.6452 39.165C53.1385 38.4883 54.5968 37.9867 56.0202 37.66C57.4668 37.31 58.8902 37.135 60.2902 37.135C62.8568 37.135 64.8518 37.7533 66.2752 38.99C67.6985 40.2033 68.4102 41.9183 68.4102 44.135V56H62.8102V54.88C62.0635 55.3933 61.2702 55.7667 60.4302 56C59.6135 56.21 58.7035 56.315 57.7002 56.315ZM56.3702 50.47C56.3702 51.0533 56.6268 51.5083 57.1402 51.835C57.6535 52.1617 58.3652 52.325 59.2752 52.325C59.9518 52.325 60.5818 52.255 61.1652 52.115C61.7718 51.975 62.3202 51.7533 62.8102 51.45V49.07C62.2735 48.93 61.7252 48.825 61.1652 48.755C60.6052 48.685 60.0335 48.65 59.4502 48.65C58.4702 48.65 57.7118 48.8133 57.1752 49.14C56.6385 49.4433 56.3702 49.8867 56.3702 50.47ZM74.6153 35.77C73.7519 35.77 73.0169 35.4667 72.4103 34.86C71.8036 34.2533 71.5003 33.5183 71.5003 32.655C71.5003 31.7917 71.8036 31.0567 72.4103 30.45C73.0169 29.8433 73.7519 29.54 74.6153 29.54C75.4786 29.54 76.2136 29.8433 76.8203 30.45C77.4269 31.0567 77.7303 31.7917 77.7303 32.655C77.7303 33.5183 77.4269 34.2533 76.8203 34.86C76.2136 35.4667 75.4786 35.77 74.6153 35.77ZM77.4503 37.485V56H71.7803V37.485H77.4503ZM86.6104 30.275V56H80.9404V31.5L86.6104 30.275ZM107.076 53.55C105.909 54.53 104.707 55.2417 103.471 55.685C102.257 56.1283 100.881 56.35 99.3406 56.35C97.9406 56.35 96.6223 56.105 95.3856 55.615C94.1489 55.125 93.0756 54.4483 92.1656 53.585C91.2789 52.7217 90.5673 51.7067 90.0306 50.54C89.5173 49.35 89.2606 48.09 89.2606 46.76C89.2606 45.43 89.5056 44.1817 89.9956 43.015C90.5089 41.825 91.1973 40.7983 92.0606 39.935C92.9239 39.0717 93.9389 38.395 95.1056 37.905C96.2956 37.415 97.5673 37.17 98.9206 37.17C100.274 37.17 101.522 37.4267 102.666 37.94C103.809 38.4533 104.789 39.1533 105.606 40.04C106.446 40.9267 107.099 42 107.566 43.26C108.032 44.4967 108.266 45.8383 108.266 47.285V48.685H95.0706C95.4439 49.5483 96.0273 50.26 96.8206 50.82C97.6139 51.3567 98.5473 51.625 99.6206 51.625C100.391 51.625 101.091 51.5083 101.721 51.275C102.351 51.0183 102.887 50.6683 103.331 50.225L107.076 53.55ZM98.8156 41.79C97.8823 41.79 97.0773 42.0467 96.4006 42.56C95.7239 43.0733 95.2456 43.7967 94.9656 44.73H102.701C102.397 43.8433 101.896 43.1317 101.196 42.595C100.519 42.0583 99.7256 41.79 98.8156 41.79ZM110.916 56V37.485H116.586V39.34C117.193 38.6167 117.904 38.0567 118.721 37.66C119.538 37.2633 120.448 37.065 121.451 37.065C121.988 37.0883 122.419 37.135 122.746 37.205C123.073 37.2517 123.353 37.3567 123.586 37.52V42.455C123.213 42.2917 122.793 42.1633 122.326 42.07C121.859 41.9533 121.381 41.895 120.891 41.895C120.004 41.895 119.176 42.105 118.406 42.525C117.659 42.945 117.053 43.5167 116.586 44.24V56H110.916Z" fill="white"/>
        <g clip-path="url(#clip1_207_2)">
            <path d="M138.031 124.174L112.684 138.798C111.694 139.366 111.82 140.745 112.804 141.16L118.617 143.599L134.329 129.752C134.63 129.484 135.056 129.895 134.799 130.206L121.625 146.257V150.659C121.625 151.95 123.184 152.459 123.949 151.523L127.422 147.296L134.236 150.151C135.013 150.479 135.899 149.992 136.041 149.156L139.978 125.531C140.164 124.426 138.978 123.627 138.031 124.174Z" fill="white"/>
        </g>
    </g>
    <defs>
        <linearGradient id="paint0_linear_207_2" x1="61.0013" y1="14.5395" x2="14.3645" y2="30.248" gradientUnits="userSpaceOnUse">
            <stop stop-color="#121C28"/>
            <stop offset="1" stop-color="#2A2367"/>
        </linearGradient>
        <linearGradient id="paint1_linear_207_2" x1="114.404" y1="20.2994" x2="39.0881" y2="89.0192" gradientUnits="userSpaceOnUse">
            <stop stop-color="#28235B"/>
            <stop offset="1" stop-color="#E6007E"/>
        </linearGradient>
        <linearGradient id="paint2_linear_207_2" x1="147.997" y1="55.3693" x2="21.0256" y2="123.426" gradientUnits="userSpaceOnUse">
            <stop stop-color="#FF9500"/>
            <stop offset="1" stop-color="#E6007E"/>
        </linearGradient>
        <linearGradient id="paint3_linear_207_2" x1="154.688" y1="138.523" x2="112.34" y2="156.725" gradientUnits="userSpaceOnUse">
            <stop stop-color="#E6332A"/>
            <stop offset="1" stop-color="#FF645B"/>
        </linearGradient>
        <linearGradient id="paint4_linear_207_2" x1="132.879" y1="107.08" x2="84.638" y2="147.806" gradientUnits="userSpaceOnUse">
            <stop stop-color="#FF9500"/>
            <stop offset="1" stop-color="#FF645B"/>
        </linearGradient>
        <clipPath id="clip0_207_2">
            <rect width="160" height="160" fill="white"/>
        </clipPath>
        <clipPath id="clip1_207_2">
            <rect width="28" height="28" fill="white" transform="translate(112 124)"/>
        </clipPath>
    </defs>
</svg>
